<svg xmlns="http://www.w3.org/2000/svg" version="1.1" xmlns:xlink="http://www.w3.org/1999/xlink" width="60" height="60" x="0" y="0" viewBox="0 0 512 512" style="enable-background:new 0 0 512 512" xml:space="preserve" class=""><g><path d="M166.514 378.391h-33.136a8 8 0 0 1-6.808-3.8l-9.755-15.8-26.428-10.971-18.055 4.3A8 8 0 0 1 64.82 350l-23.442-23.445a8 8 0 0 1-2.125-7.511l4.3-18.058-10.939-26.419-15.814-9.726a8 8 0 0 1-3.81-6.815v-33.165a8 8 0 0 1 3.811-6.815l15.818-9.725L43.557 181.9l-4.3-18.059a8 8 0 0 1 2.125-7.511l23.438-23.439a8 8 0 0 1 7.5-2.128l18.063 4.28 26.433-10.943 9.754-15.8a8 8 0 0 1 6.808-3.8h33.136a8 8 0 0 1 6.812 3.8l9.725 15.793 26.449 10.949 18.035-4.278a8 8 0 0 1 7.5 2.123l23.475 23.443a8 8 0 0 1 2.129 7.514l-4.3 18.059 10.944 26.421 15.793 9.725a8 8 0 0 1 3.806 6.812v33.165a8 8 0 0 1-3.806 6.812l-15.793 9.726-10.944 26.422 4.3 18.058a8 8 0 0 1-2.125 7.511L235.071 350a8 8 0 0 1-7.511 2.126l-18.056-4.3-26.451 10.969-9.727 15.8a8 8 0 0 1-6.812 3.796Zm-28.673-16h24.2l8.74-14.195a8.011 8.011 0 0 1 3.748-3.2l31.238-12.954a8 8 0 0 1 4.919-.393l16.229 3.868 17.123-17.117-3.868-16.23a7.989 7.989 0 0 1 .392-4.916l12.926-31.209a8 8 0 0 1 3.2-3.75l14.193-8.74V229.33l-14.193-8.74a7.994 7.994 0 0 1-3.2-3.75l-12.926-31.209a7.988 7.988 0 0 1-.392-4.916l3.867-16.227-17.147-17.126-16.208 3.845a8 8 0 0 1-4.906-.392l-31.237-12.926a8 8 0 0 1-3.754-3.2l-8.74-14.194h-24.2l-8.768 14.2a8 8 0 0 1-3.746 3.188l-31.213 12.931a8.007 8.007 0 0 1-4.906.394l-16.234-3.847-17.124 17.124 3.868 16.23a8 8 0 0 1-.392 4.916L46.4 216.84a7.988 7.988 0 0 1-3.2 3.753l-14.217 8.741v24.22L43.2 262.3a7.992 7.992 0 0 1 3.2 3.753l12.93 31.204a8 8 0 0 1 .392 4.916L55.854 318.4l17.119 17.119 16.227-3.865a8.006 8.006 0 0 1 4.922.394L125.333 345a8 8 0 0 1 3.74 3.186Zm12.091-36.469a84.478 84.478 0 1 1 84.477-84.478 84.56 84.56 0 0 1-84.477 84.478Zm0-152.956a68.478 68.478 0 1 0 68.477 68.478 68.542 68.542 0 0 0-68.477-68.478Zm232.041 34.214H360.09a8 8 0 0 1-6.813-3.805l-5.956-9.673-15.794-6.548-11.055 2.631a8 8 0 0 1-7.515-2.131l-15.448-15.477a8 8 0 0 1-2.119-7.508l2.63-11.028-6.55-15.819-9.671-5.955a8 8 0 0 1-3.806-6.812V103.2a8 8 0 0 1 3.806-6.812l9.673-5.956 6.548-15.794-2.631-11.056a8 8 0 0 1 2.12-7.5L312.957 40.6a8 8 0 0 1 7.515-2.131l11.055 2.631 15.794-6.548 5.956-9.673a8 8 0 0 1 6.813-3.8h21.883a8 8 0 0 1 6.812 3.805l5.956 9.673 15.794 6.543 11.056-2.631a8 8 0 0 1 7.515 2.131l15.448 15.477a8 8 0 0 1 2.12 7.5l-2.631 11.056 6.548 15.794 9.673 5.956a8 8 0 0 1 3.805 6.812v21.855a8 8 0 0 1-3.805 6.812l-9.671 5.955-6.55 15.819 2.63 11.028a8 8 0 0 1-2.119 7.508l-15.448 15.477a8.009 8.009 0 0 1-7.515 2.131l-11.056-2.631-15.794 6.551-5.956 9.673a8 8 0 0 1-6.812 3.807Zm-17.414-16H377.5l4.97-8.072a8 8 0 0 1 3.749-3.195l20.579-8.532a8 8 0 0 1 4.916-.393l9.224 2.2 9.131-9.149-2.195-9.2a8 8 0 0 1 .391-4.916l8.532-20.608a8 8 0 0 1 3.2-3.752l8.071-4.97v-12.924L440 102.7a8 8 0 0 1-3.195-3.748l-8.532-20.58a7.988 7.988 0 0 1-.393-4.916l2.2-9.234-9.133-9.15-9.224 2.2a8 8 0 0 1-4.916-.393l-20.579-8.532a8 8 0 0 1-3.749-3.195l-4.97-8.072h-12.95l-4.97 8.072a8 8 0 0 1-3.749 3.2l-20.579 8.532a8 8 0 0 1-4.916.393l-9.225-2.2-9.133 9.15 2.2 9.234a8 8 0 0 1-.393 4.916l-8.532 20.58a8 8 0 0 1-3.195 3.748l-8.072 4.97v12.917l8.072 4.97a8 8 0 0 1 3.2 3.752l8.532 20.608a8 8 0 0 1 .391 4.916l-2.2 9.2 9.131 9.149 9.225-2.2a8 8 0 0 1 4.916.393l20.579 8.532a8 8 0 0 1 3.749 3.195Zm6.472-24.847a52.206 52.206 0 1 1 52.192-52.191 52.25 52.25 0 0 1-52.192 52.191Zm0-88.411a36.206 36.206 0 1 0 36.192 36.22 36.246 36.246 0 0 0-36.192-36.22Zm87.647 413H271.509a40.2 40.2 0 0 1-34.818-60.31l46.8-81.034 46.771-81.04a40.21 40.21 0 0 1 69.641 0l46.8 81.042 46.773 81.043a40.2 40.2 0 0 1-34.793 60.3Zm-93.6-226.486a23.359 23.359 0 0 0-20.963 12.1l-46.771 81.042-46.8 81.043a24.2 24.2 0 0 0 20.966 36.3h187.168a24.2 24.2 0 0 0 20.94-36.294l-46.776-81.05-46.8-81.041a23.363 23.363 0 0 0-20.964-12.097Zm0 141.561c-11.212 0-20.461-9.074-21.055-20.658l-2.354-46.092a22.066 22.066 0 0 1 6.19-16.43 23.736 23.736 0 0 1 34.439 0 22.06 22.06 0 0 1 6.191 16.421l-2.353 46.1C385.54 396.926 376.29 406 365.078 406Zm0-74.579a7.809 7.809 0 0 0-5.626 2.426 6.177 6.177 0 0 0-1.8 4.594L360 384.524c.137 2.653 1.962 5.476 5.077 5.476s4.943-2.823 5.079-5.479l2.353-46.087a6.172 6.172 0 0 0-1.805-4.586 7.806 7.806 0 0 0-5.626-2.427Zm0 123.192a21.068 21.068 0 1 1 21.069-21.067 21.09 21.09 0 0 1-21.069 21.07Zm0-26.135a5.068 5.068 0 1 0 5.069 5.068 5.072 5.072 0 0 0-5.069-5.065Z" fill="#FF6349" opacity="1" data-original="#FF6349" class=""></path></g></svg>