<svg xmlns="http://www.w3.org/2000/svg" version="1.1" xmlns:xlink="http://www.w3.org/1999/xlink" width="55" height="55" x="0" y="0" viewBox="0 0 48 48" style="enable-background:new 0 0 512 512" xml:space="preserve" fill-rule="evenodd" class=""><g><path d="M43 12.599a5.002 5.002 0 0 0-2.969-4.569l-14-6.222a5.006 5.006 0 0 0-4.062 0l-14 6.222A5.002 5.002 0 0 0 5 12.599V28c0 6.174 3.416 10.566 7.38 13.557 3.853 2.906 8.209 4.471 10.226 5.089l.016.005a4.99 4.99 0 0 0 2.755.001l.018-.005c2.017-.619 6.372-2.183 10.225-5.09C39.584 38.566 43 34.174 43 28zm-2 0V28c0 5.461-3.078 9.314-6.585 11.96-3.612 2.726-7.698 4.189-9.597 4.772a2.993 2.993 0 0 1-1.631 0c-1.903-.584-5.989-2.046-9.602-4.772C10.078 37.314 7 33.461 7 28V12.599a3 3 0 0 1 1.782-2.741l14-6.222a2.996 2.996 0 0 1 2.436 0l14 6.222A3 3 0 0 1 41 12.599z" fill="#FF6349
" opacity="1" data-original="#FF6349
" class=""></path><path d="M24 13.223c-6.01 0-10.889 4.879-10.889 10.888C13.111 30.121 17.99 35 24 35s10.889-4.879 10.889-10.889c0-6.009-4.879-10.888-10.889-10.888zm0 2c4.906 0 8.889 3.982 8.889 8.888S28.906 33 24 33s-8.889-3.983-8.889-8.889 3.983-8.888 8.889-8.888z" fill="#FF6349
" opacity="1" data-original="#FF6349
" class=""></path><path d="m19.005 24.849 2.828 2.828a1 1 0 0 0 1.414 0l5.656-5.656a1 1 0 0 0-1.414-1.414l-4.949 4.949-2.121-2.121a1 1 0 0 0-1.414 1.414z" fill="#FF6349
" opacity="1" data-original="#FF6349
" class=""></path></g></svg>