<svg xmlns="http://www.w3.org/2000/svg" version="1.1" xmlns:xlink="http://www.w3.org/1999/xlink" width="60" height="60" x="0" y="0" viewBox="0 0 3873 3873" style="enable-background:new 0 0 512 512" xml:space="preserve" class=""><g><path fill-rule="evenodd" d="M2303 2991.2c-32.2 0-58.4-26.1-58.4-58.4 0-32.2 26.1-58.4 58.4-58.4 73.5 0 133.4-59.8 133.4-133.4 0-73.5-59.8-133.4-133.4-133.4-1.6 0-369.8.7-371.6.7-87.5 0-164.5-18.8-242.2-59.2l-233.1-121.2c-61.3-31.9-119.4-46.1-188.4-46.1H913.8c-32.2 0-58.4-26.1-58.4-58.4 0-32.2 26.1-58.4 58.4-58.4h353.8c87.6 0 164.6 18.8 242.3 59.3l233.1 121.2c63 32.8 121.1 46.1 189.2 46.1l370.6-.7c138 0 250.2 112.2 250.2 250.1.1 138-112.1 250.2-250 250.2z" clip-rule="evenodd" fill="#FF6349" opacity="1" data-original="#FF6349" class=""></path><path fill-rule="evenodd" d="M2047.2 3546c-78.2-3.8-158 13.7-284.8-35.2l-576.9-222.6c-49.7-19.2-93.7-27.4-147-27.4h-119c-32.2 0-58.4-26.1-58.4-58.4 0-32.2 26.1-58.4 58.4-58.4h119c67.7 0 125.9 10.8 189 35.2l576.9 222.6c101.1 39 158.8 23.8 242.8 27.4 53.2 0 97.1-8.2 146.8-27.3 269.5-103.8 1043.7-364 1273.2-520.1 115.2-78.4 59.1-324.9-264.3-175.8-1.6.7-3.2 1.4-4.9 2-831.1 294.5-786.5 283-805.3 283h-748.4c-32.2 0-58.4-26.1-58.4-58.4 0-32.2 26.1-58.4 58.4-58.4h738.3l773.8-275.4c459.2-210 604.5 224.3 376.5 379.4-246.1 167.4-1012.6 423-1296.9 532.5-63.1 24.5-121.3 35.3-188.8 35.3z" clip-rule="evenodd" fill="#FF6349" opacity="1" data-original="#FF6349" class=""></path><path fill-rule="evenodd" d="M734.5 3460H475.9c-131.1 0-237.7-106.6-237.7-237.7v-915.4c0-131.1 106.6-237.7 237.7-237.7h258.6c131.1 0 237.7 106.6 237.7 237.7v915.4c0 131.1-106.6 237.7-237.7 237.7zM475.9 2186c-66.7 0-121 54.3-121 121v915.4c0 66.7 54.3 120.9 121 120.9h258.6c66.7 0 121-54.3 121-120.9V2307c0-66.7-54.3-121-121-121zM2416.2 2304.1c-10.2 0-20.4-2.7-29.5-8-330.1-193-537.4-430.5-652.5-747.5-99-272.6-120.5-571.7-123.3-965.9-.2-34.6 29.6-62 64.4-58.5 255.5 26.7 497.1-40.9 709.4-176.4 19.1-12.2 43.6-12.2 62.8 0 56.8 36.3 117.9 68.7 176.6 93.8 172.4 73.7 351.6 101.5 532.7 82.6 34.7-3.5 64.6 23.7 64.4 58.5-2.7 394.2-24.3 693.3-123.3 965.9-115.1 317-322.4 554.5-652.5 747.5-8.8 5.3-19 8-29.2 8zM1728.4 645.3c8 639.8 78.3 1161.1 687.8 1532.4 609.6-371.3 679.8-892.6 687.8-1532.4-245.4 12-478.1-53.6-687.8-179.6-209.6 125.9-442.5 191.6-687.8 179.6z" clip-rule="evenodd" fill="#FF6349" opacity="1" data-original="#FF6349" class=""></path><path fill-rule="evenodd" d="M2296.8 1646.7c-40.6 0-81.1-15.5-111.9-46.3l-192.3-192.3c-61.8-61.8-61.8-162.4 0-224.2s162.4-61.8 224.2 0l80.2 80.2 377.4-377.4c61.9-61.9 162.2-62 224.2 0 61.8 61.8 61.8 162.4 0 224.2l-488.9 488.9c-31.3 31.3-72.1 46.9-112.9 46.9zm-221.6-380.2c-16.3 16.3-16.3 42.8 0 59.1l192.3 192.3c7.9 7.9 18.4 12.2 29.5 12.2 18.7 0 29.2-12 29.7-12.3l489.3-489.3c16.3-16.3 16.3-42.7 0-59-16.2-16.2-42.7-16.4-59.1 0L2338.3 1388c-22.8 22.8-59.7 22.8-82.5 0l-121.5-121.5c-16.4-16.3-42.9-16.2-59.1 0z" clip-rule="evenodd" fill="#FF6349" opacity="1" data-original="#FF6349" class=""></path></g></svg>